<svg width="251" height="55" viewBox="0 0 251 55" fill="none" xmlns="http://www.w3.org/2000/svg">
<path d="M51.995 33V32.745L53.185 32.405V29.855H48.34L48 29.345L54.375 20.93H55.99V29.09H57.775V29.855H55.99V32.405L57.18 32.745V33H51.995ZM48.935 29.09H53.185V23.48L48.935 29.09ZM63.5563 33.255C62.6383 33.255 61.8053 33.0113 61.0573 32.524C60.3093 32.0367 59.7143 31.3283 59.2723 30.399C58.8417 29.4583 58.6263 28.342 58.6263 27.05C58.6263 25.758 58.8417 24.6473 59.2723 23.718C59.7143 22.7773 60.3093 22.0633 61.0573 21.576C61.8053 21.0887 62.6383 20.845 63.5563 20.845C64.4743 20.845 65.3073 21.0887 66.0553 21.576C66.8033 22.0633 67.3927 22.7773 67.8233 23.718C68.2653 24.6473 68.4863 25.758 68.4863 27.05C68.4863 28.342 68.2653 29.4583 67.8233 30.399C67.3927 31.3283 66.8033 32.0367 66.0553 32.524C65.3073 33.0113 64.4743 33.255 63.5563 33.255ZM63.5563 32.915C64.8597 32.915 65.5113 30.96 65.5113 27.05C65.5113 23.14 64.8597 21.185 63.5563 21.185C62.253 21.185 61.6013 23.14 61.6013 27.05C61.6013 30.96 62.253 32.915 63.5563 32.915ZM76.3946 23.225V32.235L77.7546 32.745V33H74.5246V32.745L75.8846 32.235V21.61L74.8646 21.355V21.1H76.9896C77.579 21.1 78.0436 21.2247 78.3836 21.474C78.735 21.712 79.0353 22.069 79.2846 22.545L82.9906 29.634L85.8296 22.545C86.0223 22.0463 86.283 21.6837 86.6116 21.457C86.9403 21.219 87.4446 21.1 88.1246 21.1H89.9096V21.355L88.8896 21.61V32.49L89.9096 32.745V33H85.0646V32.745L86.0846 32.49V23.225L82.0896 33.17H81.5796L76.3946 23.225ZM91.2756 32.235C91.2756 31.5663 91.406 30.96 91.6666 30.416C91.9386 29.8607 92.2673 29.379 92.6526 28.971C93.038 28.563 93.5423 28.0813 94.1656 27.526C94.7436 27.016 95.197 26.591 95.5256 26.251C95.8543 25.8997 96.132 25.5087 96.3586 25.078C96.5853 24.636 96.6986 24.16 96.6986 23.65C96.6986 22.902 96.5173 22.3183 96.1546 21.899C95.792 21.4797 95.3216 21.27 94.7436 21.27C94.415 21.27 94.0806 21.3153 93.7406 21.406L93.3836 21.525V24.245L93.1626 24.296C92.9813 24.3187 92.8283 24.33 92.7036 24.33C92.3183 24.33 92.0066 24.2167 91.7686 23.99C91.542 23.752 91.4286 23.4403 91.4286 23.055C91.4286 22.6923 91.5646 22.341 91.8366 22.001C92.12 21.661 92.5336 21.3833 93.0776 21.168C93.633 20.9527 94.3016 20.845 95.0836 20.845C96.6136 20.845 97.747 21.151 98.4836 21.763C99.2203 22.375 99.5886 23.2307 99.5886 24.33C99.5886 25.0213 99.4073 25.6163 99.0446 26.115C98.6933 26.6137 98.257 27.0273 97.7356 27.356C97.2256 27.6847 96.54 28.0587 95.6786 28.478C94.9533 28.8293 94.364 29.141 93.9106 29.413C93.4686 29.6737 93.055 29.991 92.6696 30.365C92.2956 30.739 92.0293 31.164 91.8706 31.64H98.1606C98.24 31.028 98.4326 30.518 98.7386 30.11C98.8633 29.9173 99.0106 29.7473 99.1806 29.6H99.6906V33H91.2756V32.235Z" fill="white"/>
<path fill-rule="evenodd" clip-rule="evenodd" d="M3.25031 11.3819C3.25031 11.171 3.42854 11 3.6484 11H32.3115C32.5314 11 32.7096 11.171 32.7096 11.3819V39.0039C32.7096 39.2148 32.5314 39.3858 32.3115 39.3858C32.0916 39.3858 31.9134 39.2148 31.9134 39.0039V11.7637H3.6484C3.42854 11.7637 3.25031 11.5928 3.25031 11.3819Z" fill="white" stroke="white" stroke-width="0.5" stroke-linecap="round" stroke-linejoin="round"/>
<path d="M3.6681 39.5623L3.7931 39.5623L3.7931 39.4373L3.79309 15.6786L5.41897 17.3044C5.62202 17.5075 5.95124 17.5075 6.1543 17.3044C6.35735 17.1014 6.35735 16.7722 6.1543 16.5691L3.6408 14.0556C3.43775 13.8526 3.10853 13.8526 2.90547 14.0556L0.391976 16.5691C0.18892 16.7722 0.18892 17.1014 0.391976 17.3044C0.595033 17.5075 0.924251 17.5075 1.12731 17.3044L2.75318 15.6786L2.75318 39.4373L2.75318 39.5623L2.87818 39.5623L3.6681 39.5623Z" fill="white" stroke="white" stroke-width="0.25"/>
<path d="M2.7522 39.8315V39.9565H2.8772L26.7603 39.9565L25.1262 41.5821C24.922 41.7852 24.922 42.1148 25.1262 42.3179C25.33 42.5207 25.6602 42.5207 25.864 42.3179L28.3906 39.8044C28.5947 39.6013 28.5947 39.2717 28.3906 39.0686L25.864 36.5551C25.6602 36.3524 25.33 36.3524 25.1262 36.5551C24.922 36.7582 24.922 37.0878 25.1262 37.2909L26.7603 38.9166L2.8772 38.9166H2.7522V39.0416V39.8315Z" fill="white" stroke="white" stroke-width="0.25"/>
<path fill-rule="evenodd" clip-rule="evenodd" d="M14.1624 11.1157C14.3167 11.2699 14.3167 11.52 14.1624 11.6742L9.42295 16.4137C9.26871 16.568 9.01864 16.568 8.8644 16.4137C8.71016 16.2595 8.71016 16.0094 8.8644 15.8552L13.6039 11.1157C13.7581 10.9614 14.0082 10.9614 14.1624 11.1157Z" fill="white" stroke="white" stroke-width="0.5" stroke-linecap="round" stroke-linejoin="round"/>
<path fill-rule="evenodd" clip-rule="evenodd" d="M32.4623 29.9423C32.6165 30.0966 32.6165 30.3467 32.4623 30.5009L28.1177 34.8454C27.9635 34.9997 27.7134 34.9997 27.5592 34.8454C27.4049 34.6912 27.4049 34.4411 27.5592 34.2869L31.9037 29.9423C32.0579 29.7881 32.308 29.7881 32.4623 29.9423Z" fill="white" stroke="white" stroke-width="0.5" stroke-linecap="round" stroke-linejoin="round"/>
<path fill-rule="evenodd" clip-rule="evenodd" d="M20.0851 11.1139C20.2403 11.2672 20.2419 11.5172 20.0886 11.6725L9.81975 22.073C9.66649 22.2282 9.41642 22.2298 9.2612 22.0766C9.10598 21.9233 9.10439 21.6732 9.25765 21.518L19.5265 11.1175C19.6798 10.9622 19.9299 10.9607 20.0851 11.1139Z" fill="white" stroke="white" stroke-width="0.5" stroke-linecap="round" stroke-linejoin="round"/>
<path fill-rule="evenodd" clip-rule="evenodd" d="M32.5938 23.3591C32.7481 23.5133 32.7481 23.7634 32.5938 23.9176L22.5882 33.9232C22.434 34.0775 22.1839 34.0775 22.0297 33.9232C21.8754 33.769 21.8754 33.5189 22.0297 33.3647L32.0353 23.3591C32.1895 23.2048 32.4396 23.2048 32.5938 23.3591Z" fill="white" stroke="white" stroke-width="0.5" stroke-linecap="round" stroke-linejoin="round"/>
<path fill-rule="evenodd" clip-rule="evenodd" d="M26.4084 11.2495C26.5614 11.405 26.5594 11.6551 26.4039 11.8081L9.94736 28.0013C9.79188 28.1543 9.54182 28.1523 9.38883 27.9968C9.23584 27.8414 9.23785 27.5913 9.39333 27.4383L25.8499 11.245C26.0054 11.092 26.2554 11.0941 26.4084 11.2495Z" fill="white" stroke="white" stroke-width="0.5" stroke-linecap="round" stroke-linejoin="round"/>
<path fill-rule="evenodd" clip-rule="evenodd" d="M32.5939 17.1718C32.7482 17.3261 32.7482 17.5761 32.5939 17.7304L16.0057 34.3186C15.8515 34.4728 15.6014 34.4728 15.4472 34.3186C15.2929 34.1644 15.2929 33.9143 15.4472 33.7601L32.0354 17.1718C32.1896 17.0176 32.4397 17.0176 32.5939 17.1718Z" fill="white" stroke="white" stroke-width="0.5" stroke-linecap="round" stroke-linejoin="round"/>
<path fill-rule="evenodd" clip-rule="evenodd" d="M32.3306 11.2473C32.4849 11.4015 32.4849 11.6516 32.3306 11.8058L9.68638 34.4501C9.53214 34.6043 9.28207 34.6043 9.12783 34.4501C8.97359 34.2958 8.97359 34.0458 9.12783 33.8915L31.7721 11.2473C31.9263 11.093 32.1764 11.093 32.3306 11.2473Z" fill="white" stroke="white" stroke-width="0.5" stroke-linecap="round" stroke-linejoin="round"/>
<path d="M185.995 33V32.745L187.185 32.405V29.855H182.34L182 29.345L188.375 20.93H189.99V29.09H191.775V29.855H189.99V32.405L191.18 32.745V33H185.995ZM182.935 29.09H187.185V23.48L182.935 29.09ZM197.54 33.255C196.112 33.255 195.03 32.9717 194.293 32.405C193.568 31.8383 193.205 31.1017 193.205 30.195C193.205 29.5717 193.477 28.971 194.021 28.393C194.565 27.8037 195.228 27.3843 196.01 27.135C195.262 26.7157 194.69 26.2567 194.293 25.758C193.908 25.248 193.715 24.6303 193.715 23.905C193.715 22.9983 194.078 22.2617 194.803 21.695C195.54 21.1283 196.622 20.845 198.05 20.845C198.764 20.845 199.388 20.9753 199.92 21.236C200.464 21.4967 200.884 21.8367 201.178 22.256C201.473 22.6753 201.62 23.1117 201.62 23.565C201.62 24.0977 201.388 24.6133 200.923 25.112C200.47 25.6107 199.937 25.945 199.325 26.115C200.357 26.5683 201.139 27.1067 201.671 27.73C202.204 28.3533 202.47 29.1183 202.47 30.025C202.47 30.6143 202.289 31.1527 201.926 31.64C201.564 32.1273 201.014 32.5183 200.277 32.813C199.541 33.1077 198.628 33.255 197.54 33.255ZM198.815 25.775C199.246 25.5823 199.592 25.3047 199.852 24.942C200.124 24.5793 200.26 24.1203 200.26 23.565C200.26 23.157 200.158 22.7773 199.954 22.426C199.762 22.0747 199.507 21.797 199.189 21.593C198.883 21.3777 198.56 21.27 198.22 21.27C197.733 21.27 197.325 21.4627 196.996 21.848C196.679 22.222 196.52 22.7377 196.52 23.395C196.52 24.3017 197.285 25.095 198.815 25.775ZM197.37 32.83C198.096 32.83 198.657 32.6317 199.053 32.235C199.461 31.827 199.665 31.2603 199.665 30.535C199.665 29.991 199.393 29.4413 198.849 28.886C198.305 28.3307 197.586 27.8603 196.69 27.475C196.056 27.7017 195.557 28.0417 195.194 28.495C194.832 28.937 194.65 29.5037 194.65 30.195C194.65 30.671 194.769 31.113 195.007 31.521C195.257 31.9177 195.585 32.235 195.993 32.473C196.413 32.711 196.872 32.83 197.37 32.83ZM208.599 32.745L209.619 32.49V21.61L208.599 21.355V21.1H212.934C214.963 21.1 216.515 21.6213 217.592 22.664C218.68 23.7067 219.224 25.1687 219.224 27.05C219.224 28.9313 218.68 30.3933 217.592 31.436C216.515 32.4787 214.963 33 212.934 33H208.599V32.745ZM212.934 32.575C213.988 32.575 214.804 32.15 215.382 31.3C215.96 30.4387 216.249 29.022 216.249 27.05C216.249 25.078 215.96 23.667 215.382 22.817C214.804 21.9557 213.988 21.525 212.934 21.525H212.424V32.575H212.934ZM219.047 32.745L220.407 32.235L225.082 20.93H225.592L230.437 32.49L231.287 32.745V33H229.247C228.657 33 228.176 32.8697 227.802 32.609C227.428 32.337 227.15 31.9857 226.969 31.555L226.102 29.515H222.039L220.917 32.235L222.192 32.745V33H219.047V32.745ZM222.209 29.09H225.932L224.062 24.619L222.209 29.09ZM233.061 32.745L234.081 32.49V28.58L230.596 21.61L229.746 21.355V21.1H231.871C232.46 21.1 232.931 21.2247 233.282 21.474C233.645 21.7233 233.939 22.0803 234.166 22.545L236.682 27.56L239.266 21.865L237.991 21.355V21.1H241.221V21.355L239.861 21.865L236.886 28.41V32.49L237.906 32.745V33H233.061V32.745ZM245.552 33.255C244.747 33.255 243.994 33.0737 243.291 32.711C242.974 32.5523 242.707 32.3653 242.492 32.15C242.333 32.4107 242.135 32.643 241.897 32.847C241.693 32.9943 241.58 33.0737 241.557 33.085H241.132V29.855H241.812C241.982 30.4103 242.22 30.909 242.526 31.351C243.217 32.337 244.113 32.83 245.212 32.83C245.858 32.83 246.374 32.6373 246.759 32.252C247.144 31.8667 247.337 31.351 247.337 30.705C247.337 30.331 247.224 29.9967 246.997 29.702C246.782 29.4073 246.51 29.1467 246.181 28.92C245.852 28.6933 245.393 28.41 244.804 28.07C244.056 27.6507 243.45 27.271 242.985 26.931C242.52 26.591 242.124 26.166 241.795 25.656C241.466 25.1347 241.302 24.5227 241.302 23.82C241.302 23.2647 241.455 22.766 241.761 22.324C242.078 21.8707 242.549 21.5137 243.172 21.253C243.795 20.981 244.56 20.845 245.467 20.845C246.124 20.845 246.782 21.032 247.439 21.406C247.688 21.542 247.938 21.7233 248.187 21.95C248.38 21.6553 248.578 21.423 248.782 21.253C248.986 21.1057 249.099 21.0263 249.122 21.015H249.547V24.245H248.867C248.72 23.701 248.499 23.208 248.204 22.766C247.932 22.3353 247.592 21.9783 247.184 21.695C246.787 21.4117 246.328 21.27 245.807 21.27C245.365 21.27 244.985 21.4457 244.668 21.797C244.351 22.1483 244.192 22.596 244.192 23.14C244.192 23.5593 244.311 23.939 244.549 24.279C244.798 24.6077 245.099 24.8967 245.45 25.146C245.813 25.3953 246.3 25.6957 246.912 26.047C247.626 26.455 248.204 26.8177 248.646 27.135C249.088 27.4523 249.462 27.849 249.768 28.325C250.074 28.7897 250.227 29.328 250.227 29.94C250.227 30.552 250.051 31.113 249.7 31.623C249.349 32.1217 248.822 32.5183 248.119 32.813C247.416 33.1077 246.561 33.255 245.552 33.255Z" fill="white"/>
<path d="M119 54.035L119 0" stroke="white" stroke-width="0.75"/>
<path d="M158.246 13.1997C157.983 11.9464 156.842 11 155.477 11C155.165 11 154.912 11.2458 154.912 11.5499C154.912 11.854 155.165 12.0998 155.477 12.0998C156.412 12.0998 157.173 12.84 157.173 13.7496C157.173 14.6591 156.412 15.3993 155.477 15.3993C155.165 15.3993 154.912 15.6451 154.912 15.9492C154.912 16.2533 155.165 16.4992 155.477 16.4992C156.842 16.4992 157.983 15.5528 158.246 14.2995H165.651V19.2487H135.13V14.2995H143.043H144.739C145.051 14.2995 145.304 14.0537 145.304 13.7496C145.304 13.4455 145.051 13.1997 144.739 13.1997H143.712C143.946 12.5607 144.568 12.0998 145.304 12.0998C146.239 12.0998 146.999 12.84 146.999 13.7496C146.999 14.6591 146.239 15.3993 145.304 15.3993C144.992 15.3993 144.739 15.6451 144.739 15.9492C144.739 16.2533 144.992 16.4992 145.304 16.4992C146.862 16.4992 148.13 15.2657 148.13 13.7496C148.13 12.2335 146.862 11 145.304 11C143.939 11 142.798 11.9464 142.535 13.1997H134V20.3486V42.3452H166.781V20.3486V13.1997H158.246ZM165.651 41.2454H135.13V20.3486H165.651V41.2454Z" fill="white"/>
<path d="M148.695 12.0998C149.63 12.0998 150.391 12.84 150.391 13.7496C150.391 14.6591 149.63 15.3993 148.695 15.3993C148.383 15.3993 148.13 15.6451 148.13 15.9492C148.13 16.2533 148.383 16.4992 148.695 16.4992C150.253 16.4992 151.521 15.2657 151.521 13.7496C151.521 12.2335 150.253 11 148.695 11C148.383 11 148.13 11.2458 148.13 11.5499C148.13 11.854 148.383 12.0998 148.695 12.0998Z" fill="white"/>
<path d="M152.086 12.0998C153.021 12.0998 153.782 12.84 153.782 13.7496C153.782 14.6591 153.021 15.3993 152.086 15.3993C151.774 15.3993 151.521 15.6451 151.521 15.9492C151.521 16.2533 151.774 16.4992 152.086 16.4992C153.644 16.4992 154.912 15.2657 154.912 13.7496C154.912 12.2335 153.644 11 152.086 11C151.774 11 151.521 11.2458 151.521 11.5499C151.521 11.854 151.774 12.0998 152.086 12.0998Z" fill="white"/>
<path d="M139.087 24.7475H151.521C151.833 24.7475 152.086 24.5017 152.086 24.1976C152.086 23.8935 151.833 23.6477 151.521 23.6477H139.087C138.775 23.6477 138.522 23.8935 138.522 24.1976C138.522 24.5017 138.775 24.7475 139.087 24.7475Z" fill="white"/>
<path d="M161.694 32.4465H153.217C152.905 32.4465 152.651 32.6923 152.651 32.9964C152.651 33.3006 152.905 33.5464 153.217 33.5464H161.694C162.006 33.5464 162.26 33.3006 162.26 32.9964C162.26 32.6923 162.006 32.4465 161.694 32.4465Z" fill="white"/>
<path d="M139.087 29.1472H144.739C145.051 29.1472 145.304 28.9014 145.304 28.5973C145.304 28.2932 145.051 28.0474 144.739 28.0474H139.087C138.775 28.0474 138.522 28.2932 138.522 28.5973C138.522 28.9014 138.775 29.1472 139.087 29.1472Z" fill="white"/>
<path d="M161.694 36.8459H156.043C155.731 36.8459 155.477 37.0918 155.477 37.3959C155.477 37.7 155.731 37.9458 156.043 37.9458H161.694C162.006 37.9458 162.26 37.7 162.26 37.3959C162.26 37.0918 162.006 36.8459 161.694 36.8459Z" fill="white"/>
<path d="M149.825 28.5973C149.825 28.9014 150.079 29.1472 150.391 29.1472H158.868C159.18 29.1472 159.434 28.9014 159.434 28.5973C159.434 28.2932 159.18 28.0474 158.868 28.0474H150.391C150.079 28.0474 149.825 28.2932 149.825 28.5973Z" fill="white"/>
<path d="M147.966 28.9879C148.068 28.8834 148.13 28.7405 148.13 28.5975C148.13 28.454 148.068 28.311 147.966 28.207C147.757 28.0036 147.373 28.0036 147.163 28.207C147.062 28.311 146.999 28.454 146.999 28.5975C146.999 28.7405 147.062 28.8834 147.163 28.9879C147.271 29.0919 147.418 29.1474 147.565 29.1474C147.712 29.1474 147.859 29.0919 147.966 28.9879Z" fill="white"/>
<path d="M141.348 32.9964C141.348 33.3006 141.601 33.5464 141.913 33.5464H150.391C150.703 33.5464 150.956 33.3006 150.956 32.9964C150.956 32.6923 150.703 32.4465 150.391 32.4465H141.913C141.601 32.4465 141.348 32.6923 141.348 32.9964Z" fill="white"/>
<path d="M139.087 33.5469C139.234 33.5469 139.381 33.4864 139.488 33.3874C139.59 33.2829 139.652 33.1399 139.652 32.997C139.652 32.8534 139.59 32.7104 139.488 32.612C139.279 32.403 138.895 32.403 138.685 32.6065C138.584 32.7104 138.522 32.8534 138.522 32.997C138.522 33.1399 138.584 33.2829 138.685 33.3874C138.793 33.4864 138.934 33.5469 139.087 33.5469Z" fill="white"/>
<path d="M161.694 29.1474C161.841 29.1474 161.988 29.0919 162.096 28.9879C162.203 28.8834 162.26 28.7405 162.26 28.5975C162.26 28.454 162.203 28.311 162.096 28.207C161.881 28.0036 161.502 28.0036 161.293 28.207C161.191 28.311 161.129 28.454 161.129 28.5975C161.129 28.7405 161.191 28.8834 161.293 28.9879C161.401 29.0919 161.547 29.1474 161.694 29.1474Z" fill="white"/>
<path d="M153.217 36.8459H139.087C138.775 36.8459 138.522 37.0918 138.522 37.3959C138.522 37.7 138.775 37.9458 139.087 37.9458H153.217C153.529 37.9458 153.782 37.7 153.782 37.3959C153.782 37.0918 153.529 36.8459 153.217 36.8459Z" fill="white"/>
</svg>
